<svg width="24" height="24" viewBox="0 0 24 24"><path fill-rule="evenodd" d="M19.5003,20.1537 C18.4383,20.1537 17.5773,21.0132 17.5773,22.0767 C17.5773,23.1387 18.4383,23.9997 19.5003,23.9997 C20.5623,23.9997 21.4233,23.1387 21.4233,22.0767 C21.4233,21.0132 20.5623,20.1537 19.5003,20.1537 L19.5003,20.1537 Z M21.0858,14.2467 C21.3843,14.2107 21.6333,14.0022 21.7188,13.7157 L23.9688,6.2157 C24.0318,6.0012 23.9988,5.7702 23.8743,5.5842 C23.7513,5.3982 23.5503,5.2782 23.3298,5.2542 L4.1553,3.2337 L3.7323,1.3377 C3.6753,1.0797 3.4878,0.8727 3.2373,0.7887 L0.9873,0.0387 C0.5958,-0.0918 0.1713,0.1212 0.0378,0.5127 C-0.0927,0.9057 0.1203,1.3302 0.5133,1.4622 L2.3598,2.0772 L4.8348,13.2102 L5.1828,14.9577 L3.8298,17.6652 C3.7143,17.8977 3.7248,18.1737 3.8613,18.3942 C3.9993,18.6162 4.2408,18.7497 4.5003,18.7497 L21.0003,18.7497 C21.4143,18.7497 21.7503,18.4152 21.7503,17.9997 C21.7503,17.5857 21.4143,17.2497 21.0003,17.2497 L5.7138,17.2497 L6.3723,15.9342 L21.0858,14.2467 Z M6.4233,22.0767 C6.4233,23.1387 5.5623,23.9997 4.5003,23.9997 C3.4383,23.9997 2.5773,23.1387 2.5773,22.0767 C2.5773,21.0132 3.4383,20.1537 4.5003,20.1537 C5.5623,20.1537 6.4233,21.0132 6.4233,22.0767 L6.4233,22.0767 Z"></path></svg>